<svg width="65" height="25" viewBox="0 0 65 25" fill="none" xmlns="http://www.w3.org/2000/svg">
<g clip-path="url(#clip0_53_224)">
<path d="M33.9897 7.07C33.9897 7.79533 33.4054 8.37963 32.6801 8.37963C31.9547 8.37963 31.3704 7.79533 31.3704 7.07C31.3704 6.34466 31.9346 5.76037 32.6801 5.76037C33.4256 5.78051 33.9897 6.36481 33.9897 7.07ZM28.59 9.70941C28.59 9.8303 28.59 10.0318 28.59 10.0318C28.59 10.0318 27.9654 9.22585 26.6356 9.22585C24.4395 9.22585 22.7269 10.8982 22.7269 13.2152C22.7269 15.5121 24.4193 17.2045 26.6356 17.2045C27.9856 17.2045 28.59 16.3785 28.59 16.3785V16.721C28.59 16.8822 28.7109 17.0031 28.8721 17.0031H30.5041V9.42734C30.5041 9.42734 29.0131 9.42734 28.8721 9.42734C28.7109 9.42734 28.59 9.56837 28.59 9.70941ZM28.59 14.5651C28.2878 15.0084 27.6833 15.3912 26.958 15.3912C25.6685 15.3912 24.6813 14.5853 24.6813 13.2152C24.6813 11.8451 25.6685 11.0392 26.958 11.0392C27.6632 11.0392 28.3079 11.4422 28.59 11.8653V14.5651ZM31.713 9.42734H33.6472V17.0031H31.713V9.42734ZM60.6055 9.22585C59.2757 9.22585 58.6511 10.0318 58.6511 10.0318V5.78051H56.7169V17.0031C56.7169 17.0031 58.2078 17.0031 58.3489 17.0031C58.5101 17.0031 58.6309 16.862 58.6309 16.721V16.3785C58.6309 16.3785 59.2555 17.2045 60.5853 17.2045C62.7815 17.2045 64.4941 15.5121 64.4941 13.2152C64.4941 10.9183 62.7815 9.22585 60.6055 9.22585ZM60.2831 15.3711C59.5376 15.3711 58.9533 14.9882 58.6511 14.545V11.8451C58.9533 11.4422 59.5981 11.019 60.2831 11.019C61.5726 11.019 62.5598 11.825 62.5598 13.195C62.5598 14.5651 61.5726 15.3711 60.2831 15.3711ZM55.7095 12.51V17.0232H53.7752V12.7316C53.7752 11.4825 53.3723 10.9787 52.2843 10.9787C51.7 10.9787 51.0955 11.281 50.7127 11.7242V17.0031H48.7785V9.42734H50.3097C50.4709 9.42734 50.5918 9.56837 50.5918 9.70941V10.0318C51.156 9.44748 51.9014 9.22585 52.6469 9.22585C53.4932 9.22585 54.1983 9.46763 54.7625 9.95119C55.4475 10.5153 55.7095 11.2407 55.7095 12.51ZM44.084 9.22585C42.7542 9.22585 42.1296 10.0318 42.1296 10.0318V5.78051H40.1954V17.0031C40.1954 17.0031 41.6863 17.0031 41.8274 17.0031C41.9885 17.0031 42.1094 16.862 42.1094 16.721V16.3785C42.1094 16.3785 42.734 17.2045 44.0638 17.2045C46.26 17.2045 47.9726 15.5121 47.9726 13.2152C47.9927 10.9183 46.2801 9.22585 44.084 9.22585ZM43.7616 15.3711C43.0161 15.3711 42.4318 14.9882 42.1296 14.545V11.8451C42.4318 11.4422 43.0765 11.019 43.7616 11.019C45.0511 11.019 46.0383 11.825 46.0383 13.195C46.0383 14.5651 45.0511 15.3711 43.7616 15.3711ZM38.5231 9.22585C39.1074 9.22585 39.4096 9.32659 39.4096 9.32659V11.1198C39.4096 11.1198 37.7977 10.5758 36.7903 11.7242V17.0232H34.8561V9.42734C34.8561 9.42734 36.3471 9.42734 36.4881 9.42734C36.6493 9.42734 36.7702 9.56837 36.7702 9.70941V10.0318C37.1328 9.60867 37.9186 9.22585 38.5231 9.22585ZM18.4353 16.318C18.3346 16.0762 18.2338 15.8143 18.1331 15.5927C17.9719 15.23 17.8107 14.8875 17.6697 14.5651L17.6495 14.545C16.2593 11.5227 14.7683 8.46022 13.1968 5.43799L13.1363 5.3171C12.9752 5.01488 12.814 4.69251 12.6528 4.37014C12.4513 4.00747 12.2498 3.62466 11.9275 3.26199C11.2827 2.45606 10.3559 2.0128 9.36863 2.0128C8.36122 2.0128 7.45455 2.45606 6.78966 3.22169C6.48744 3.58436 6.26581 3.96718 6.06433 4.32984C5.90314 4.65221 5.74196 4.97459 5.58077 5.27681L5.52033 5.3977C3.96892 8.41993 2.4578 11.4825 1.06758 14.5047L1.04743 14.545C0.906394 14.8673 0.745209 15.2099 0.584023 15.5725C0.483282 15.7942 0.382541 16.0359 0.2818 16.2979C0.0198741 17.0434 -0.0607187 17.7485 0.0400223 18.4739C0.261652 19.985 1.26906 21.2543 2.65929 21.8185C3.18314 22.0401 3.72714 22.1408 4.29129 22.1408C4.45247 22.1408 4.65396 22.1207 4.81514 22.1005C5.48003 22.02 6.16507 21.7983 6.82996 21.4155C7.65604 20.9521 8.44182 20.2872 9.32834 19.3201C10.2149 20.2872 11.0208 20.9521 11.8267 21.4155C12.4916 21.7983 13.1766 22.02 13.8415 22.1005C14.0027 22.1207 14.2042 22.1408 14.3654 22.1408C14.9295 22.1408 15.4937 22.0401 15.9974 21.8185C17.4078 21.2543 18.395 19.9648 18.6166 18.4739C18.7778 17.7687 18.6972 17.0635 18.4353 16.318ZM9.34848 17.3657C8.26048 15.9956 7.5553 14.7062 7.31352 13.6182C7.21278 13.1547 7.19263 12.7518 7.25307 12.3891C7.29337 12.0667 7.41426 11.7847 7.57544 11.5429C7.95826 10.9989 8.603 10.6564 9.34848 10.6564C10.094 10.6564 10.7589 10.9787 11.1215 11.5429C11.2827 11.7847 11.4036 12.0667 11.4439 12.3891C11.5043 12.7518 11.4842 13.1749 11.3835 13.6182C11.1417 14.686 10.4365 15.9755 9.34848 17.3657ZM17.3876 18.3127C17.2466 19.3604 16.5414 20.2671 15.5541 20.67C15.0706 20.8715 14.5467 20.932 14.0229 20.8715C13.5192 20.8111 13.0155 20.6499 12.4916 20.3477C11.7663 19.9447 11.0409 19.3201 10.1947 18.3933C11.5245 16.7613 12.3304 15.2703 12.6326 13.9405C12.7737 13.3159 12.7938 12.7518 12.7334 12.2279C12.6528 11.7242 12.4715 11.2608 12.1894 10.8579C11.5648 9.95119 10.5171 9.42734 9.34848 9.42734C8.17989 9.42734 7.13218 9.97134 6.50759 10.8579C6.22552 11.2608 6.04418 11.7242 5.96359 12.2279C5.883 12.7518 5.90314 13.3361 6.06433 13.9405C6.36655 15.2703 7.19263 16.7814 8.50226 18.4134C7.67618 19.3402 6.9307 19.9648 6.20537 20.3678C5.68151 20.67 5.17781 20.8312 4.6741 20.8917C4.1301 20.9521 3.60625 20.8715 3.14284 20.6902C2.15558 20.2872 1.4504 19.3805 1.30936 18.3328C1.24891 17.8291 1.28921 17.3254 1.49069 16.7613C1.55114 16.5598 1.65188 16.3583 1.75262 16.1165C1.89366 15.7942 2.05484 15.4516 2.21603 15.1091L2.23617 15.0688C3.6264 12.0667 5.11736 9.00422 6.66878 6.02229L6.72922 5.9014C6.89041 5.59918 7.05159 5.27681 7.21278 4.97459C7.37396 4.65221 7.5553 4.34999 7.77693 4.08807C8.20004 3.60451 8.76419 3.34258 9.38878 3.34258C10.0134 3.34258 10.5775 3.60451 11.0006 4.08807C11.2223 4.34999 11.4036 4.65221 11.5648 4.97459C11.726 5.27681 11.8872 5.59918 12.0483 5.9014L12.1088 6.02229C13.64 9.02437 15.131 12.0869 16.5212 15.089V15.1091C16.6824 15.4315 16.8235 15.7942 16.9846 16.1165C17.0854 16.3583 17.1861 16.5598 17.2466 16.7613C17.4078 17.2851 17.4682 17.7888 17.3876 18.3127Z" fill="white"/>
</g>
<defs>
<clipPath id="clip0_53_224">
<rect width="64.4097" height="24.1536" fill="white"/>
</clipPath>
</defs>
</svg>
