<svg width="75" height="11" viewBox="0 0 75 11" fill="none" xmlns="http://www.w3.org/2000/svg">
<path d="M44.4586 0.548209C42.9337 0.548209 41.4431 1.92909 41.2716 3.92431V0.712694H39.0818V10.3966H41.2985V5.70917C41.2985 4.39613 42.2292 2.54393 44.4586 2.54393V0.548209Z" fill="white"/>
<path d="M67.7105 8.84627V2.21166H68.9945C70.7066 2.21166 72.0979 3.28176 72.0979 5.47547C72.0979 7.66915 70.7066 8.84627 68.9945 8.84627H67.7105ZM65.5166 10.3979H69.2622C71.5628 10.3979 74.3985 8.89979 74.3985 5.47547C74.3985 2.10465 71.5628 0.71352 69.2622 0.71352H65.5166V10.3979Z" fill="white"/>
<path d="M57.123 5.58259C57.123 3.81692 58.0325 2.37229 59.5306 2.37229C60.9753 2.37229 61.7778 3.81692 61.7778 5.58259C61.7778 7.34826 60.9753 8.79288 59.5306 8.79288C58.0325 8.79288 57.123 7.34826 57.123 5.58259ZM54.8758 5.68958C54.8758 8.57886 56.3738 10.6121 58.7281 10.6121C60.4401 10.6121 61.4567 9.48845 61.9919 7.66927V10.398H64.1851V0.713638H61.9919V3.28187C61.5104 1.56972 60.4938 0.553124 58.8888 0.553124C56.4808 0.553124 54.8758 2.74683 54.8758 5.68958Z" fill="white"/>
<path d="M4.92106 10.6121C2.1923 10.6121 0.587158 8.41835 0.587158 5.68958C0.587158 2.85384 2.35282 0.553124 5.72363 0.553124C9.20145 0.553124 10.3786 2.90734 10.4321 4.24496H7.91734C7.86382 3.49589 7.22176 2.37229 5.67011 2.37229C4.01147 2.37229 2.94138 3.81692 2.94138 5.58259C2.94138 7.34826 4.01147 8.79288 5.67011 8.79288C7.16825 8.79288 7.81031 7.61579 8.07784 6.43866H5.67011V5.47556H10.7223V10.398H8.50588V7.29474C8.34537 8.41835 7.6498 10.6121 4.92106 10.6121Z" fill="white"/>
<path d="M15.2163 10.6119C13.1296 10.6119 11.8455 9.2208 11.8455 6.43854V0.71352H14.0927V6.43854C14.0927 7.88317 14.7883 8.57874 15.9653 8.57874C18.2661 8.57874 19.1222 5.74297 19.1222 3.7633V0.71352H21.3693V10.3979H19.1756V6.81307C18.7476 8.79276 17.5705 10.6119 15.2163 10.6119Z" fill="white"/>
<path d="M34.798 0.548041C32.8807 0.548041 31.6713 2.40011 31.2765 4.11256C31.209 1.81766 30.0804 0.548041 28.2747 0.548041C26.7146 0.548041 25.2673 1.9393 24.8914 4.14027V0.712783H22.7007V10.3974H24.9194V6.92551C24.9194 6.06477 25.2783 2.53254 27.5118 2.53254C28.9587 2.53254 29.1095 3.83766 29.1095 5.62167V10.3974H31.3272V6.92551C31.3272 6.06477 31.7009 2.53254 33.9344 2.53254C35.3801 2.53254 35.5294 3.83766 35.5294 5.62167V10.3974H37.7501V4.669C37.7602 1.92085 36.7899 0.548041 34.798 0.548041Z" fill="white"/>
<path d="M49.2187 0.548041C46.3465 0.548041 44.4002 2.80022 44.4002 5.58003C44.4002 8.64301 46.2512 10.612 49.2187 10.612C52.091 10.612 54.0718 8.35987 54.0718 5.58003C54.0718 2.51709 52.1849 0.548041 49.2187 0.548041ZM49.2187 8.89779C47.5466 8.89779 46.4636 7.48215 46.4636 5.58003C46.4636 3.67792 47.5503 2.26224 49.2187 2.26224C50.8869 2.26224 51.9303 3.67792 51.9303 5.58003C51.9303 7.48215 50.8859 8.89779 49.2187 8.89779Z" fill="white"/>
</svg>
