<svg width="61" height="25" viewBox="0 0 61 25" fill="none" xmlns="http://www.w3.org/2000/svg">
<g clip-path="url(#clip0_44_781)">
<path d="M19.1262 16.317L19.8649 14.5903C20.6738 15.1893 21.7288 15.5063 22.7841 15.5063C23.558 15.5063 24.0503 15.2069 24.0503 14.7489C24.0326 13.4802 19.39 14.4669 19.3547 11.2773C19.337 9.65628 20.7792 8.40526 22.8195 8.40526C24.0326 8.40526 25.2463 8.7049 26.1079 9.39221L25.4176 11.1557C24.6249 10.646 23.6457 10.2906 22.7138 10.2906C22.0807 10.2906 21.6585 10.59 21.6585 10.9779C21.6761 12.2289 26.3543 11.5416 26.4071 14.5903C26.4071 16.2466 24.9999 17.4096 22.995 17.4096C21.518 17.4096 20.1638 17.0572 19.1259 16.317H19.1262ZM48.5423 13.965C48.3558 14.2963 48.0846 14.5721 47.7564 14.764C47.4282 14.9559 47.0548 15.0571 46.6746 15.0571C45.4897 15.0571 44.5292 14.0946 44.5292 12.9074C44.5292 11.7202 45.4897 10.7577 46.6746 10.7577C47.0548 10.7578 47.4282 10.8589 47.7564 11.0508C48.0846 11.2428 48.3558 11.5185 48.5423 11.8499L50.5962 10.7098C49.8269 9.33495 48.3595 8.40526 46.6746 8.40526C44.193 8.40526 42.1813 10.4208 42.1813 12.9074C42.1813 15.3938 44.193 17.4096 46.6746 17.4096C48.3595 17.4096 49.8269 16.4799 50.5962 15.105L48.5423 13.965ZM27.7398 17.2333H30.3074V4.6575H27.7401L27.7398 17.2333ZM51.8928 4.6575V17.2333H54.4604V13.4656L57.503 17.2333H60.7849L56.9158 12.7574L60.5034 8.58081H57.3623L54.4604 12.0531V4.6575H51.8928ZM38.2179 8.58131V9.60357C37.7959 8.89861 36.7582 8.40526 35.6679 8.40526C33.4168 8.40526 31.6407 10.3966 31.6407 12.8986C31.6407 15.4006 33.4168 17.4096 35.6679 17.4096C36.7582 17.4096 37.7959 16.9162 38.2179 16.2113V17.2333H40.7855V8.58131H38.2179ZM38.2179 13.9824C37.8486 14.5991 37.0748 15.0569 36.2132 15.0569C35.028 15.0569 34.0675 14.0946 34.0675 12.9074C34.0675 11.7202 35.028 10.7577 36.2132 10.7577C37.0748 10.7577 37.8486 11.2334 38.2179 11.8675V13.9824Z" fill="white"/>
<path d="M5.56652 4.37967C4.73444 4.37967 4.06 5.05562 4.06 5.88922C4.0598 6.08725 4.09861 6.28339 4.17422 6.46643C4.24982 6.64947 4.36073 6.81583 4.50063 6.956C4.64052 7.09618 4.80665 7.20742 4.98954 7.28339C5.17243 7.35936 5.36849 7.39857 5.56652 7.39876H7.0733V5.88922C7.07363 5.48924 6.91508 5.1055 6.63251 4.82242C6.34994 4.53933 5.9665 4.38007 5.56652 4.37967ZM5.56652 8.40513H1.54888C0.7168 8.40513 0.0423584 9.08108 0.0423584 9.91493C0.0423584 10.7485 0.7168 11.4245 1.54888 11.4245H5.56678C6.3986 11.4245 7.0733 10.7485 7.0733 9.91493C7.0733 9.08108 6.3986 8.40513 5.56652 8.40513Z" fill="white"/>
<path d="M15.1086 9.91493C15.1086 9.08108 14.4339 8.40513 13.6019 8.40513C12.7698 8.40513 12.0953 9.08108 12.0953 9.91493V11.4245H13.6019C14.0018 11.4241 14.3853 11.2648 14.6679 10.9817C14.9504 10.6986 15.109 10.3149 15.1086 9.91493ZM11.091 9.91493V5.88922C11.0913 5.48924 10.9328 5.1055 10.6502 4.82242C10.3676 4.53933 9.9842 4.38007 9.58422 4.37967C8.75214 4.37967 8.0777 5.05562 8.0777 5.88922V9.91468C8.0777 10.7488 8.75214 11.4247 9.58422 11.4247C9.9842 11.4243 10.3676 11.2651 10.6502 10.982C10.9328 10.6989 11.0913 10.3152 11.091 9.91518" fill="white"/>
<path d="M9.58422 19.4757C9.9842 19.4753 10.3676 19.316 10.6502 19.0329C10.9328 18.7499 11.0913 18.3661 11.091 17.9661C11.0913 17.5662 10.9328 17.1824 10.6502 16.8993C10.3676 16.6163 9.9842 16.457 9.58422 16.4566H8.0777V17.9661C8.0777 18.7997 8.75214 19.4757 9.58422 19.4757ZM9.58422 15.4502H13.6021C14.4339 15.4502 15.1086 14.7743 15.1086 13.9404C15.109 13.5405 14.9504 13.1567 14.6679 12.8736C14.3853 12.5905 14.0018 12.4313 13.6019 12.4309H9.58422C8.75214 12.4309 8.0777 13.1068 8.0777 13.9404C8.0775 14.1385 8.11631 14.3346 8.19191 14.5176C8.26751 14.7007 8.37843 14.867 8.51832 15.0072C8.65821 15.1474 8.82435 15.2586 9.00724 15.3346C9.19012 15.4106 9.38618 15.4498 9.58422 15.45" fill="white"/>
<path d="M0.0422371 13.9404C0.0420383 14.1385 0.0808479 14.3346 0.15645 14.5176C0.232052 14.7007 0.342967 14.867 0.48286 15.0072C0.622754 15.1474 0.788887 15.2586 0.971774 15.3346C1.15466 15.4106 1.35072 15.4498 1.54876 15.45C1.94874 15.4496 2.33218 15.2903 2.61475 15.0072C2.89731 14.7241 3.05587 14.3404 3.05553 13.9404V12.4309H1.54876C0.716679 12.4309 0.0422371 13.1068 0.0422371 13.9404ZM4.05988 13.9404V17.9659C4.05988 18.7997 4.73432 19.4757 5.5664 19.4757C5.96638 19.4753 6.34982 19.316 6.63239 19.0329C6.91496 18.7499 7.07351 18.3661 7.07318 17.9661V13.9404C7.07338 13.7424 7.03456 13.5462 6.95894 13.3632C6.88332 13.1801 6.77239 13.0137 6.63246 12.8736C6.49254 12.7334 6.32638 12.6221 6.14347 12.5462C5.96055 12.4702 5.76446 12.431 5.5664 12.4309C4.73432 12.4309 4.05988 13.1068 4.05988 13.9404Z" fill="white"/>
</g>
<defs>
<clipPath id="clip0_44_781">
<rect width="60.8873" height="24.1536" fill="white" transform="translate(0.0422363)"/>
</clipPath>
</defs>
</svg>
