<svg width="108" height="25" viewBox="0 0 108 25" fill="none" xmlns="http://www.w3.org/2000/svg">
<g clip-path="url(#clip0_44_780)">
<path d="M25.7063 8.85583H16.7496L16.4296 9.11176V17.0768H18.8928V14.0699L19.1166 13.846H25.7062C27.3696 13.846 28.1374 13.3982 28.1374 12.2467V10.4233C28.1374 9.30366 27.3697 8.85583 25.7063 8.85583ZM25.7063 11.7987C25.7063 12.3425 25.3544 12.4385 24.5547 12.4385H19.1487L18.8928 12.2146V10.5192L19.1166 10.2953H24.5546C25.3224 10.2953 25.7062 10.3913 25.7062 10.935L25.7063 11.7987ZM32.6798 10.3592L34.823 13.4941L34.695 13.782H29.9608L28.7452 15.2855H35.7826L36.2944 15.5733L37.382 17.0768H40.229L33.9913 8.75986L32.6798 10.3592ZM60.9254 15.4774V13.2382L61.1813 13.0143H65.9476V11.6068H58.3983V17.0768H69.5303V15.6693H61.2133L60.9254 15.4774ZM58.3983 8.85583H69.6262V10.3913H58.3983V8.85583ZM45.891 10.3273H54.9436C54.8157 9.17571 54.0799 8.85583 52.2886 8.85583H45.795C43.7478 8.85583 43.108 9.23971 43.108 10.8071V15.1575C43.108 16.693 43.7478 17.1088 45.795 17.1088H52.2886C54.1119 17.1088 54.8157 16.7569 54.8797 15.5733H45.891L45.635 15.3174V10.5192L45.891 10.3273ZM10.3519 12.0547H3.79432L3.60238 11.8308V10.4233L3.79432 10.2634H12.6551L12.783 9.97545C12.4951 9.20769 11.6954 8.82389 10.2559 8.82389H4.08219C2.03496 8.82389 1.39519 9.20773 1.39519 10.7751V11.7028C1.39519 13.2383 2.03496 13.6541 4.08219 13.6541H10.6398L10.8317 13.846V15.3174L10.6718 15.5414H1.20324C1.20324 15.5414 0.97937 15.6693 0.97937 15.7013C1.13929 16.7889 1.87504 17.0768 3.63436 17.0768H10.3519C12.3992 17.0768 13.071 16.693 13.071 15.1255V14.0059C13.0709 12.4705 12.3992 12.0547 10.3519 12.0547ZM76.6956 8.82385H72.985L72.7931 9.20769L76.8876 12.2146C77.6553 11.7667 78.519 11.319 79.4146 10.8711L76.6956 8.82385ZM80.0224 14.4538L83.6371 17.0768H87.3478L87.5077 16.7249L82.1337 12.7904C81.4299 13.3341 80.6942 13.878 80.0224 14.4538Z" fill="white"/>
<path d="M76.152 17.0768H72.7933L72.5053 16.6289C74.7765 14.4218 84.9488 5.01725 107.053 4.02561C107.053 4.02561 88.5315 4.66534 76.152 17.0768Z" fill="white"/>
</g>
<defs>
<clipPath id="clip0_44_780">
<rect width="106.175" height="24.1536" fill="white" transform="translate(0.866821)"/>
</clipPath>
</defs>
</svg>
